<svg xmlns="http://www.w3.org/2000/svg" width="26.5" height="26.5" viewBox="0 0 26.5 26.5">
  <g id="组_140" data-name="组 140" transform="translate(-85.333 -85.333)">
    <path id="路径_70" data-name="路径 70" d="M106.886,85.333a1.52,1.52,0,0,1,1.413,1.413V96.64a8.572,8.572,0,0,0-8.127,15.017H86.746a1.52,1.52,0,0,1-1.413-1.413v-23.5a1.52,1.52,0,0,1,1.413-1.413h20.14Z" fill="#0070d2"/>
    <path id="路径_71" data-name="路径 71" d="M106.886,85.333a1.52,1.52,0,0,1,1.413,1.413V96.64a8.572,8.572,0,0,0-8.127,15.017H86.746a1.52,1.52,0,0,1-1.413-1.413v-23.5a1.52,1.52,0,0,1,1.413-1.413h20.14Z" fill="#9f9f9f"/>
    <path id="路径_72" data-name="路径 72" d="M204.214,263.067h-5.477a.969.969,0,0,0-.707,1.06.76.76,0,0,0,.707.707h5.653c.53-.177.883-.53.707-1.06A1.174,1.174,0,0,0,204.214,263.067ZM207.57,256h-8.657c-.53.177-1.06.53-.883,1.06a.808.808,0,0,0,.883.707h8.833a1.12,1.12,0,0,0,.883-1.06A1.193,1.193,0,0,0,207.57,256Z" transform="translate(-109.164 -165.367)" fill="#fff"/>
    <path id="路径_73" data-name="路径 73" d="M490.622,483.556a7.067,7.067,0,1,1-7.067,7.067A7.087,7.087,0,0,1,490.622,483.556Zm2.827,4.24-3.357,3.18-1.59-1.59a1.088,1.088,0,0,0-1.237-.177l-.177.177a1.088,1.088,0,0,0-.177,1.237l.177.177,2.3,2.3a1.088,1.088,0,0,0,1.237.177l.177-.177,3.887-3.71a1.075,1.075,0,0,0,0-1.413.873.873,0,0,0-1.237-.177Z" transform="translate(-385.855 -385.856)" fill="#469af5"/>
    <path id="路径_74" data-name="路径 74" d="M490.622,483.556a7.067,7.067,0,1,1-7.067,7.067A7.087,7.087,0,0,1,490.622,483.556Zm2.827,4.24-3.357,3.18-1.59-1.59a1.088,1.088,0,0,0-1.237-.177l-.177.177a1.088,1.088,0,0,0-.177,1.237l.177.177,2.3,2.3a1.088,1.088,0,0,0,1.237.177l.177-.177,3.887-3.71a1.075,1.075,0,0,0,0-1.413.873.873,0,0,0-1.237-.177Z" transform="translate(-385.855 -385.856)" fill="#9f9f9f"/>
  </g>
</svg>
