<svg xmlns="http://www.w3.org/2000/svg" width="15.385" height="18.462" viewBox="0 0 15.385 18.462">
  <g id="Icon" transform="translate(-0.308 -0.769)">
    <path id="Shape" d="M12.02,16.01a23.948,23.948,0,0,1-2.459,2.248c-.294.234-.567.441-.813.618-.15.108-.259.184-.321.225a.769.769,0,0,1-.853,0c-.062-.041-.171-.117-.321-.225-.246-.178-.519-.384-.813-.618A23.948,23.948,0,0,1,3.98,16.01C1.694,13.6.308,11.055.308,8.462a7.692,7.692,0,0,1,15.385,0C15.692,11.055,14.306,13.6,12.02,16.01ZM8,11.538A3.077,3.077,0,1,0,4.923,8.462,3.077,3.077,0,0,0,8,11.538Z" fill="#6478d3"/>
  </g>
</svg>
