<svg xmlns="http://www.w3.org/2000/svg" xmlns:xlink="http://www.w3.org/1999/xlink" width="352.058" height="318.814" viewBox="0 0 352.058 318.814">
  <defs>
    <linearGradient id="linear-gradient" x1="0.5" y1="0.923" x2="0.5" y2="-0.187" gradientUnits="objectBoundingBox">
      <stop offset="0" stop-color="#fff"/>
      <stop offset="1" stop-color="#6560ff"/>
    </linearGradient>
  </defs>
  <g id="Illustration" transform="translate(-0.001 -0.395)" opacity="0.5">
    <g id="Group-7" transform="translate(0.001 2.473)">
      <g id="Group-3" transform="translate(9)">
        <path id="Fill-1" d="M71.578,310.025h192.3c42.858-29.52,70.88-78.2,70.88-133.3C334.754,86.666,259.974.717,167.725.717S.7,86.666.7,176.726c0,55.1,28.022,103.779,70.88,133.3" transform="translate(-0.698 -0.717)" fill-rule="evenodd" opacity="0.504" fill="url(#linear-gradient)"/>
      </g>
      <g id="Group-6" transform="translate(0 302.868)">
        <path id="Fill-4" d="M352.059,7.086c0-3.828-78.812-6.934-176.03-6.934S0,3.257,0,7.086s78.81,6.934,176.028,6.934,176.03-3.106,176.03-6.934" transform="translate(-0.001 -0.152)" fill="#d9d8ff" fill-rule="evenodd"/>
      </g>
    </g>
    <path id="Fill-8" d="M70,223.6h6.288V145H70Z" transform="translate(40.042 82.719)" fill="#9e9bff" fill-rule="evenodd"/>
    <path id="Fill-9" d="M70,155.86h6.288V148H70Z" transform="translate(40.042 84.436)" fill="#8481e9" fill-rule="evenodd"/>
    <g id="Group-115" transform="translate(25.436 0.395)">
      <path id="Fill-10" d="M104.62,194.977H37.609a4.636,4.636,0,0,0-4.629,4.643v2.391h76.271V199.62a4.636,4.636,0,0,0-4.631-4.643" transform="translate(18.582 110.913)" fill="#9e9bff" fill-rule="evenodd"/>
      <path id="Fill-12" d="M50.888,186.806h55.387c-20.154-7.257-12.358-75.62-8.63-101.536a8.655,8.655,0,0,0-8.557-9.891H52.194A15.131,15.131,0,0,0,37.213,88.458C33.978,112,28.876,160.829,38.98,179.729a13.479,13.479,0,0,0,11.908,7.077" transform="translate(18.605 42.499)" fill="#6560ff" fill-rule="evenodd"/>
      <g id="Group-16" transform="translate(0)">
        <path id="Fill-14" d="M77.832,39.322A38.826,38.826,0,1,0,39.005,78.249,38.875,38.875,0,0,0,77.832,39.322" transform="translate(-0.181 -0.395)" fill="#6560ff" fill-rule="evenodd"/>
      </g>
      <path id="Fill-17" d="M68.114,36.723a31.7,31.7,0,1,0-31.7,31.783,31.744,31.744,0,0,0,31.7-31.783" transform="translate(2.413 2.204)" fill="#fff" fill-rule="evenodd"/>
      <path id="Fill-19" d="M19.87,44.943a1.956,1.956,0,0,1-1.394-.579,1.979,1.979,0,0,1,0-2.8l8.263-8.285V11.5a1.972,1.972,0,1,1,3.944,0V34.1a1.981,1.981,0,0,1-.58,1.4l-8.841,8.865a1.951,1.951,0,0,1-1.392.579" transform="translate(9.954 4.827)" fill="#a29fff" fill-rule="evenodd"/>
      <path id="Fill-21" d="M30.811,26.448A4.541,4.541,0,1,0,26.269,31a4.548,4.548,0,0,0,4.542-4.552" transform="translate(12.146 11.903)" fill="#6560ff" fill-rule="evenodd"/>
      <path id="Fill-23" d="M191.851,48.2H125.593a6.16,6.16,0,0,0-6.151,6.168V84.3a6.161,6.161,0,0,0,6.151,6.168h4.627v7.237a1.157,1.157,0,0,0,1.931.862l8.96-8.1h50.741A6.16,6.16,0,0,0,198,84.3V54.37a6.158,6.158,0,0,0-6.151-6.168" transform="translate(68.041 26.953)" fill="#6560ff" fill-rule="evenodd"/>
      <path id="Fill-25" d="M137.876,62.923a2.709,2.709,0,1,1-2.708-2.717,2.713,2.713,0,0,1,2.708,2.717" transform="translate(75.487 33.82)" fill="#fff" fill-rule="evenodd"/>
      <path id="Fill-27" d="M148.477,62.923a2.709,2.709,0,1,1-2.71-2.717,2.714,2.714,0,0,1,2.71,2.717" transform="translate(81.551 33.82)" fill="#fff" fill-rule="evenodd"/>
      <path id="Fill-29" d="M158.372,62.923a2.71,2.71,0,1,1-2.71-2.717,2.714,2.714,0,0,1,2.71,2.717" transform="translate(87.21 33.82)" fill="#fff" fill-rule="evenodd"/>
      <path id="Fill-31" d="M35.883,104.694c0-7.326-5.161-14.666-11.525-14.666s-11.525,7.34-11.525,14.666,5.161,13.264,11.525,13.264,11.525-5.938,11.525-13.264" transform="translate(7.056 50.878)" fill="#6560ff" fill-rule="evenodd"/>
      <path id="Fill-33" d="M21.24,90.027a8.476,8.476,0,0,0-2.958.558c4.928,1.823,8.567,7.963,8.567,14.109S23.211,116,18.282,117.5a10.078,10.078,0,0,0,2.958.457c6.364,0,11.525-5.938,11.525-13.264S27.6,90.027,21.24,90.027" transform="translate(10.174 50.878)" fill="#423dc6" fill-rule="evenodd"/>
      <path id="Fill-35" d="M11.813,105.566l2.065,18.75a4.618,4.618,0,0,0,4.585,4.117h11.92a4.617,4.617,0,0,0,4.585-4.117l2.067-18.75a1.721,1.721,0,0,0-1.708-1.912H13.52a1.72,1.72,0,0,0-1.708,1.912" transform="translate(6.467 58.673)" fill="#9e9bff" fill-rule="evenodd"/>
      <path id="Fill-37" d="M13.519,106.455H35.327a1.69,1.69,0,0,1,1.5.961l.205-1.851a1.723,1.723,0,0,0-1.708-1.912H13.519a1.72,1.72,0,0,0-1.706,1.912l.2,1.851a1.688,1.688,0,0,1,1.5-.961" transform="translate(6.467 58.673)" fill="#8481e9" fill-rule="evenodd"/>
      <path id="Fill-39" d="M31.316,103.654H23.755a1.72,1.72,0,0,1,1.708,1.912L23.4,124.316a4.617,4.617,0,0,1-4.585,4.117h7.559a4.614,4.614,0,0,0,4.585-4.117l2.067-18.75a1.72,1.72,0,0,0-1.708-1.912" transform="translate(10.477 58.673)" fill="#8481e9" fill-rule="evenodd"/>
      <path id="Fill-41" d="M87.8,188.255l-.781,5.418,4.11,5.278,10.431-5.12,1.13-4.957-12.983-1.967Z" transform="translate(49.495 106.297)" fill="#fff" fill-rule="evenodd"/>
      <path id="Fill-43" d="M96.745,203.232l1.077-1.337a.5.5,0,0,1,.771-.01l1.081,1.27a2.247,2.247,0,0,0,1.755.795l24.232-.413a1.31,1.31,0,0,0,.043-1.837c-3.552-3.595-22.668-9.808-23.619-10.332s-6.8,4.032-14.541-.156a82.431,82.431,0,0,0-1.438,10.023,2.771,2.771,0,0,0,2.8,2.929l6.151-.1a2.222,2.222,0,0,0,1.688-.827" transform="translate(48.97 108.759)" fill="#2a2a35" fill-rule="evenodd"/>
      <path id="Fill-45" d="M60.225,130.7s-10.062,11.151,8.364,23.27c12.926,8.5,23.112,5.9,31.226,11.06a6.855,6.855,0,0,1,3.483,5.262l.412,52.136.98.488a17.824,17.824,0,0,0,15.539.17l7.337-59.486c.262-4.1-1.949-7.56-4.481-10.789C109,134.84,84.051,128.752,77.738,127.713c-8.208-1.351-17.513,2.984-17.513,2.984" transform="translate(32.599 72.287)" fill="#2a2a35" fill-rule="evenodd"/>
      <path id="Fill-47" d="M62.34,188.241l-.856,5.408,4.039,5.331,10.5-4.975,1.2-4.94-12.953-2.145Z" transform="translate(34.887 106.305)" fill="#fff" fill-rule="evenodd"/>
      <path id="Fill-49" d="M71.094,203.346l1.095-1.321a.5.5,0,0,1,.773,0l1.063,1.285a2.253,2.253,0,0,0,1.743.819L100,204.046a1.307,1.307,0,0,0,.067-1.835c-3.5-3.642-22.53-10.116-23.475-10.652s-6.851,3.935-14.537-.358a82.357,82.357,0,0,0-1.574,10,2.771,2.771,0,0,0,2.759,2.966l6.149-.02a2.218,2.218,0,0,0,1.7-.8" transform="translate(34.313 108.753)" fill="#2a2a35" fill-rule="evenodd"/>
      <path id="Fill-51" d="M41.266,124.043S29.073,137.668,46.7,153.056c12.368,10.795,23.465,6.179,31.253,12.762a7.273,7.273,0,0,1,2.907,6.031L75.3,224.883l.42.273a16.719,16.719,0,0,0,16.255,1.111l13.784-55.883c.864-4.271-.964-8.224-3.163-11.983C90.359,137.49,71.15,125.026,64.664,123.025c-8.433-2.6-23.4,1.018-23.4,1.018" transform="translate(20.972 69.217)" fill="#2a2a35" fill-rule="evenodd"/>
      <path id="Fill-53" d="M92.338,163.421a24.135,24.135,0,0,0-2.84-.989,24.354,24.354,0,0,0-3.1-7.217A95.641,95.641,0,0,0,65.457,130.6c4.418-.751,6.666-1.7,7.889-2.946a82.865,82.865,0,0,1,13.233,3.6c6,10.045,5.976,26.359,5.759,32.172" transform="translate(37.16 72.399)" fill="#202036" fill-rule="evenodd"/>
      <path id="Fill-55" d="M74.226,77.523S56.641,75.173,49.335,88.908s-18.219,67.59-8.678,69.227c4.224.726,15.49,3.567,27.974,2.652,17.162-1.258,20.9-2.844,22.132-6.114L101.7,104.486a21.249,21.249,0,0,0-8.3-17.718,59.556,59.556,0,0,0-19.172-9.246" transform="translate(20.838 43.638)" fill="#73abff" fill-rule="evenodd"/>
      <path id="Fill-57" d="M81.615,91.813s.227,30.223,9.705,32.054,34.711,1.26,34.711,1.26v9.616H71.91Z" transform="translate(40.851 51.9)" fill="#5e93e3" fill-rule="evenodd"/>
      <path id="Fill-59" d="M74.967,90.824,77.1,80.134,63.272,69.575l-2.649,12.6s4.361,19.24,14.344,8.649" transform="translate(34.395 39.179)" fill="#fff4eb" fill-rule="evenodd"/>
      <path id="Fill-61" d="M94.587,71.327s-7.234,3.53-17.834-2.946c0,0-2.457,4.431-9.561,8.388,0,0-3.69-6.2-5.814-1.554a9.853,9.853,0,0,0-.976,3.793c-6.654-8.614-1.962-19.964,4.24-26.082,5.877-5.808,18.6-3.5,26.55-.3,8.437,3.407,9.987-2.517,9.987-2.517,10.662,15.058-6.591,21.216-6.591,21.216" transform="translate(32.415 27.614)" fill="#2a2a35" fill-rule="evenodd"/>
      <path id="Fill-63" d="M66.015,69.845s-3.692-6.2-5.814-1.554c-2.578,5.638.329,9.175,3.818,9.175,0,0,2.773,14.666,16.211,13.63S95.61,68.42,93.413,64.4c0,0-7.238,3.532-17.835-2.948,0,0-2.455,4.437-9.563,8.39" transform="translate(33.59 34.534)" fill="#fff" fill-rule="evenodd"/>
      <path id="Fill-65" d="M162.849,88.613h-56.1a5.822,5.822,0,0,0-5.7,4.667l-7.469,36.7h67.975l7-34.369a5.83,5.83,0,0,0-5.7-7" transform="translate(53.247 50.069)" fill="#4d48e0" fill-rule="evenodd"/>
      <path id="Fill-67" d="M171.426,114.932H78.714a2.774,2.774,0,0,0-2.769,2.776v.9a2.774,2.774,0,0,0,2.769,2.776h92.713a2.774,2.774,0,0,0,2.769-2.776v-.9a2.774,2.774,0,0,0-2.769-2.776" transform="translate(43.159 65.125)" fill="#1914ad" fill-rule="evenodd"/>
      <path id="Fill-69" d="M161.609,114.932h-68.5a2.772,2.772,0,0,1,2.769,2.776v.9a2.774,2.774,0,0,1-2.769,2.776h68.5a2.774,2.774,0,0,0,2.769-2.776v-.9a2.772,2.772,0,0,0-2.769-2.776" transform="translate(52.977 65.125)" fill="#423dc6" fill-rule="evenodd"/>
      <path id="Fill-71" d="M104.108,132.324c-10.922-1.275-41.562-4.41-46.812-4.955-6.625-.686,7.763-27.474,9.362-36.633s-5.368-9.5-5.368-9.5c-3.931-.492-8.22,0-11.873,5.549C41.939,98.137,33.609,131.332,38,139.528a2.957,2.957,0,0,0,2.613,1.55h63.5Z" transform="translate(20.756 45.765)" fill="#73abff" fill-rule="evenodd"/>
      <path id="Fill-73" d="M98.109,132.324s-39.45-2.723-47.954-3.868c-6.6-.888,7.155-28.334,8.753-37.492s-5.481-8.776-5.481-8.776a16.863,16.863,0,0,0-6.159.579A11.393,11.393,0,0,1,55.3,81.229s6.96.348,5.362,9.505-13.932,35.374-9.762,36.4c5.126,1.27,36.286,3.911,47.212,5.185" transform="translate(26.755 45.765)" fill="#5e93e3" fill-rule="evenodd"/>
      <path id="Fill-75" d="M79.609,122.222H94.324a1.394,1.394,0,0,0,1.168-2.153c-1.379-2.124-3.556-5.123-5.151-5.632-.951-.3-8.106-.036-10.731.243Z" transform="translate(45.255 64.765)" fill="#fff" fill-rule="evenodd"/>
      <path id="Fill-79" d="M196.7,197.867s18.483-9.191,13.454-23.126-8.131-14.528,1.479-22.386,23.508-27.573,5.915-29.056S200.839,145.24,186.2,148.5s-22.623,64.635,10.5,49.366" transform="translate(98.981 69.872)" fill="#6560ff" fill-rule="evenodd"/>
      <path id="Fill-81" d="M179.015,199.248c3.55,1.649,8.321,1.489,14.545-1.382,0,0,18.483-9.191,13.454-23.126s-8.131-14.528,1.479-22.384S232,124.781,214.408,123.3a16.175,16.175,0,0,0-4.69.253c4.95,2.062,9.877,6.154,3.513,13.723-10.6,12.606-16.271,17.055-15.038,25.212,1.2,7.955.517,26.013-19.178,36.762" transform="translate(102.119 69.873)" fill="#423dc6" fill-rule="evenodd"/>
      <path id="Fill-83" d="M180.225,190.334s-16.263-.593-15.377-12.305,1.339-12.169-8.871-15.863c-18.038-6.521-3.757-41.259,10.942-19.418,10.2,15.157,14.638,11.748,21.292,12.934s21.144,39.841-7.985,34.652" transform="translate(84.109 76.961)" fill="#6560ff" fill-rule="evenodd"/>
      <path id="Fill-85" d="M187.761,155.681c-6.654-1.186-11.09,2.225-21.292-12.934-7.694-11.431-15.263-7.356-18.154.053,4.329-1.329,10.9-2.126,11.723,4.936,1.061,9.163,22.442,24.209,22.006,42.912.284.03.558.05.832.071,3.112-8.224,7.218-18.894,10.733-27.984-1.88-3.919-4.126-6.747-5.848-7.053" transform="translate(84.558 76.962)" fill="#423dc6" fill-rule="evenodd"/>
      <path id="Fill-87" d="M176.088,201.068s-20.181-19.79-13.306-23.126,20.4,7.56,12.863-4.226-16.322-30.144-5.9-27.253,11.178,6.067,9.889-7.658c-1.669-17.755,8.206-26.907,17.521-21.125s-7.983,44.917-1.552,40.693,11.754-7.783,13.086-2.67S190.276,180.9,197.6,177.5c9.094-4.226,10.423,3.336,7.54,8s-14.859,32.467-29.052,15.566" transform="translate(92.016 65.708)" fill="#6560ff" fill-rule="evenodd"/>
      <path id="Fill-89" d="M198.091,185.5c2.883-4.671,1.552-12.23-7.54-8-7.325,3.4,12.419-16.679,11.09-21.793s-6.654-1.556-13.087,2.668,10.869-34.911,1.552-40.693c-4.331-2.689-8.768-2.114-12.125,1.02,4.822,1.182,8.682,5.072,6.007,15.572-5.67,22.246-9.121,40.784,1.233,35.346,9.751-5.124-11.33,18.483-11.543,35.494,12.1,6.935,21.85-15.459,24.414-19.61" transform="translate(99.066 65.713)" fill="#423dc6" fill-rule="evenodd"/>
      <path id="Fill-91" d="M161.844,172.888l3.9,35.459a8.735,8.735,0,0,0,8.672,7.787h22.544a8.735,8.735,0,0,0,8.672-7.787l3.907-35.459a3.257,3.257,0,0,0-3.23-3.617H165.074a3.256,3.256,0,0,0-3.23,3.617" transform="translate(92.285 96.209)" fill="#9e9bff" fill-rule="evenodd"/>
      <path id="Fill-93" d="M198.729,169.272h-14.3a3.257,3.257,0,0,1,3.23,3.617l-3.907,35.457a8.733,8.733,0,0,1-8.672,7.787h14.3a8.733,8.733,0,0,0,8.672-7.787l3.907-35.457a3.257,3.257,0,0,0-3.23-3.617" transform="translate(99.869 96.209)" fill="#8481e9" fill-rule="evenodd"/>
      <path id="Fill-95" d="M251.979,119.267H10.265a4.919,4.919,0,0,0-4.911,4.926v1.6a4.919,4.919,0,0,0,4.911,4.926H251.979a4.92,4.92,0,0,0,4.913-4.926v-1.6a4.92,4.92,0,0,0-4.913-4.926" transform="translate(2.779 67.604)" fill="#5e93e3" fill-rule="evenodd"/>
      <path id="Fill-97" d="M251.979,119.267H10.265a4.918,4.918,0,0,0-4.911,4.926v1.6a4.865,4.865,0,0,0,.254,1.491,4.894,4.894,0,0,1,4.656-3.435H251.979a4.9,4.9,0,0,1,4.658,3.435,4.926,4.926,0,0,0,.254-1.491v-1.6a4.919,4.919,0,0,0-4.913-4.926" transform="translate(2.779 67.604)" fill="#3875d0" fill-rule="evenodd"/>
      <path id="Fill-99" d="M80.469,240.723h-8.08l-56.2-114.138h8.08Z" transform="translate(8.975 71.791)" fill="#4743cb" fill-rule="evenodd"/>
      <path id="Fill-101" d="M.5,240.723h8.08l56.2-114.138H56.7Z" transform="translate(0.001 71.791)" fill="#4743cb" fill-rule="evenodd"/>
      <path id="Fill-103" d="M191.158,240.723h-8.08l-56.2-114.138h8.078Z" transform="translate(72.294 71.791)" fill="#4743cb" fill-rule="evenodd"/>
      <path id="Fill-105" d="M111.187,240.723h8.08l56.2-114.138h-8.08Z" transform="translate(63.319 71.791)" fill="#4743cb" fill-rule="evenodd"/>
      <path id="Fill-107" d="M26.492,131.108l-2.227-4.522h-8.08l2.229,4.522Z" transform="translate(8.975 71.791)" fill="#1a3651" fill-rule="evenodd"/>
      <path id="Fill-109" d="M42.912,131.108l2.229-4.522H37.06l-2.227,4.522Z" transform="translate(19.642 71.791)" fill="#1a3651" fill-rule="evenodd"/>
      <path id="Fill-111" d="M137.181,131.108l-2.227-4.522h-8.078l2.227,4.522Z" transform="translate(72.294 71.791)" fill="#1a3651" fill-rule="evenodd"/>
      <path id="Fill-113" d="M153.6,131.108l2.229-4.522h-8.08l-2.227,4.522Z" transform="translate(82.96 71.791)" fill="#1a3651" fill-rule="evenodd"/>
    </g>
  </g>
</svg>
