<svg xmlns="http://www.w3.org/2000/svg" width="19" height="19" viewBox="0 0 19 19">
  <g id="Icon-2" transform="translate(-0.308 -0.308)">
    <path id="Shape" d="M3.158.308h2.85a2.85,2.85,0,0,1,2.85,2.85v2.85a2.85,2.85,0,0,1-2.85,2.85H3.158a2.85,2.85,0,0,1-2.85-2.85V3.158A2.85,2.85,0,0,1,3.158.308Zm10.45,0h2.85a2.85,2.85,0,0,1,2.85,2.85v2.85a2.85,2.85,0,0,1-2.85,2.85h-2.85a2.85,2.85,0,0,1-2.85-2.85V3.158A2.85,2.85,0,0,1,13.608.308Zm0,10.45h2.85a2.85,2.85,0,0,1,2.85,2.85v2.85a2.85,2.85,0,0,1-2.85,2.85h-2.85a2.85,2.85,0,0,1-2.85-2.85v-2.85A2.85,2.85,0,0,1,13.608,10.758Zm-10.45,0h2.85a2.85,2.85,0,0,1,2.85,2.85v2.85a2.85,2.85,0,0,1-2.85,2.85H3.158a2.85,2.85,0,0,1-2.85-2.85v-2.85A2.85,2.85,0,0,1,3.158,10.758Z" fill="#273447"/>
  </g>
</svg>
