<svg xmlns="http://www.w3.org/2000/svg" xmlns:xlink="http://www.w3.org/1999/xlink" width="89.291" height="89.113" viewBox="0 0 89.291 89.113">
  <defs>
    <linearGradient id="linear-gradient" x1="0.003" y1="0.499" x2="1" y2="0.499" gradientUnits="objectBoundingBox">
      <stop offset="0" stop-color="#83a6ff"/>
      <stop offset="1" stop-color="#5a78ff"/>
    </linearGradient>
    <linearGradient id="linear-gradient-2" x1="0.498" y1="0.969" x2="0.498" y2="0.445" gradientUnits="objectBoundingBox">
      <stop offset="0" stop-color="#fff"/>
      <stop offset="0.991" stop-color="#d6deea"/>
    </linearGradient>
  </defs>
  <g id="组_62" data-name="组 62" transform="translate(-204.558 -290.125)">
    <path id="Path" d="M85.97,42.9a43.133,43.133,0,0,1-11.8,29.54,6.938,6.938,0,0,1-2.055,1.8,42.634,42.634,0,0,1-53.636,3.853,49.035,49.035,0,0,1-5.645-4.623A42.262,42.262,0,0,1,0,42.9a42.985,42.985,0,0,1,85.97,0Z" transform="translate(206.218 291.528)" fill="#e9f0f8"/>
    <path id="Path-2" data-name="Path" d="M85.97,42.638a43.06,43.06,0,0,1-13.858,31.6,42.634,42.634,0,0,1-53.636,3.853A42.3,42.3,0,0,1,0,42.9,42.952,42.952,0,0,1,42.858,0C66.467,0,85.97,19.007,85.97,42.638Z" transform="translate(206.218 291.785)" fill="#dce2f0"/>
    <path id="Path-3" data-name="Path" d="M61.336,56.767a6.938,6.938,0,0,1-2.055,1.8A42.665,42.665,0,0,1,30.027,70.123,42.32,42.32,0,0,1,5.645,62.418,49.036,49.036,0,0,1,0,57.795c1.028-1.285,2.565-2.055,5.9-3.34l1.283-.513c2.568-1.028,6.16-2.313,10.778-4.368a4.609,4.609,0,0,0,1.8-1.283,1.343,1.343,0,0,0,.513-1.028,4.759,4.759,0,0,0,.513-1.8V36.733c-.255-.258-.255-.258-.513-.515a6.314,6.314,0,0,1-1.283-3.853l-.513-.258c-2.31.515-2.055-1.8-2.568-6.42-.258-1.8,0-2.313,1.028-2.57l.77-1.025a25.4,25.4,0,0,1-2.31-9.506c0-4.365,1.8-7.191,4.363-8.476C18.221,1.028,18.221,0,18.221,0S27.2,1.543,30.282,1.028c3.85-.77,10.011.258,12.318,5.4,3.85,1.54,5.133,3.853,5.648,6.42.513,4.11-1.8,8.476-2.31,10.273v.258c.513.258.77.77.513,2.57-.513,4.365-.513,6.933-2.565,6.42l-2.055,3.6c0,.515,0,.515-.255.773v8.988a3.579,3.579,0,0,0,.77,2.313c.255.258.255.513.513.513.513.515,1.028,1.028,1.54,1.028,5.133,2.055,8.726,3.6,11.548,4.625A26.821,26.821,0,0,1,61.336,56.767Z" transform="translate(219.049 307.197)" fill="#fff"/>
    <path id="Path-4" data-name="Path" d="M61.336,8.476a6.938,6.938,0,0,1-2.055,1.8A42.665,42.665,0,0,1,30.027,21.832,42.32,42.32,0,0,1,5.645,14.126,49.036,49.036,0,0,1,0,9.5c1.028-1.285,2.565-2.055,5.9-3.34L7.185,5.65c2.568-1.028,6.16-2.313,10.778-4.368A4.609,4.609,0,0,0,19.761,0,13.979,13.979,0,0,0,31.309,5.908,14.33,14.33,0,0,0,42.6.255c.515.515,1.028,1.028,1.54,1.028,5.133,2.055,8.726,3.6,11.548,4.625A24.22,24.22,0,0,1,61.336,8.476Z" transform="translate(219.049 355.488)" fill="url(#linear-gradient)"/>
    <path id="Path-5" data-name="Path" d="M30.837,22.862a5,5,0,0,0-.77-3.34c0-.258-.258-.258-.258-.513-1.8-3.6-5.645-4.88-9.238-5.138-9.5-.515-10.266,1.285-13.088-1.285,1.028,1.285,1.028,3.6-.513,6.166a7.547,7.547,0,0,1-4.62,3.34C-2.012,12.328.3,6.166,4.4,4.11,2.863,1.028,2.863,0,2.863,0s8.983,1.543,12.063,1.028c3.85-.77,10.008.258,12.318,5.4,3.85,1.54,5.133,3.853,5.645,6.42C33.66,16.7,31.35,21.064,30.837,22.862Z" transform="translate(233.892 307.197)" fill="#1c3754"/>
    <path id="Path-6" data-name="Path" d="M.513,9.761V1.028C.255.77.255.77,0,.513V0A6.888,6.888,0,0,0,1.8,2.053l6.93,4.88a4.247,4.247,0,0,0,5.388,0l6.415-5.65c.258-.255.515-.255.77-.513V9.761a2.3,2.3,0,0,0,.258,1.283H.513C.255,10.531.513,10.273.513,9.761Z" transform="translate(239.58 342.902)" fill="url(#linear-gradient-2)"/>
    <path id="Path-7" data-name="Path" d="M85.97,42.638a43.06,43.06,0,0,1-13.858,31.6,42.634,42.634,0,0,1-53.636,3.853A42.3,42.3,0,0,1,0,42.9,42.952,42.952,0,0,1,42.858,0C66.467,0,85.97,19.007,85.97,42.638Z" transform="translate(206.218 291.785)" fill="none" stroke="#fff" stroke-linecap="round" stroke-linejoin="round" stroke-miterlimit="10" stroke-width="3.321"/>
  </g>
</svg>
