<svg xmlns="http://www.w3.org/2000/svg" width="25.911" height="26.5" viewBox="0 0 25.911 26.5">
  <path id="路径_69" data-name="路径 69" d="M67.972,50.213l-.624.577-2.471-2.573.624-.578a2.016,2.016,0,0,1,2.74-.106,1.927,1.927,0,0,1-.269,2.68ZM53.819,54c-.292,0-.922.893-1.26,1.374-.676.959-1.315,1.866-2.217,1.866-.916-.02-1.521-.971-2.106-1.889-.261-.411-.789-1.239-1.066-1.341A21.971,21.971,0,0,0,43.9,57.1a.666.666,0,0,1-.485.21.654.654,0,0,1-.66-.647V33.506a1.436,1.436,0,0,1,1.448-1.421H63.454A1.437,1.437,0,0,1,64.9,33.506v12.73L54.91,55.259c-.316-.478-.839-1.253-1.091-1.257Zm6.053-15.449H47.787a.886.886,0,1,0,0,1.772H59.873a.886.886,0,1,0,0-1.772Zm0,3.985H47.787a.887.887,0,1,0,0,1.773H59.873a.887.887,0,1,0,0-1.773Zm.9,4.872a.9.9,0,0,0-.9-.886H47.787a.887.887,0,1,0,0,1.773H59.873A.9.9,0,0,0,60.777,47.41Zm-3.541,7.97a.472.472,0,0,1,.16-.267l6.455-5.945,2.441,2.542-6.425,5.976a.792.792,0,0,1-.28.141l-2.635.72a.228.228,0,0,1-.137.038.546.546,0,0,1-.385-.148.463.463,0,0,1-.082-.518l.887-2.54Z" transform="translate(-42.758 -32.086)" fill="#9f9f9f"/>
</svg>
