<svg xmlns="http://www.w3.org/2000/svg" width="24.457" height="20" viewBox="0 0 24.457 20">
  <path id="路径_64" data-name="路径 64" d="M202.349,269.226a9.806,9.806,0,0,0-12.878-5.343,9.612,9.612,0,0,0-4.087,3.309l-3.269.638a.626.626,0,0,0-.478.379.743.743,0,0,0,0,.618l1.894,3.708a9.993,9.993,0,0,0,.777,4.446,9.806,9.806,0,0,0,12.878,5.343A10.028,10.028,0,0,0,202.349,269.226Zm-8.572,10.147c-1.714,1.256-2.552-1.256-4.346-2.332-1.814-1.077-2.851-.777-2.592-2.173s3.13-1.734,5.083-.6C193.917,275.425,195.491,278.137,193.777,279.373Zm-11.2-1.595c-.04-.578-3.907-1.435-3.887.1C178.726,279.412,182.613,278.356,182.573,277.778Zm-2.073,4.784c.8,1.3,3.588-1.635,3.269-2.113C183.471,279.971,179.7,281.246,180.5,282.562Z" transform="translate(-178.686 -263.103)" fill="#6478d3"/>
</svg>
