<svg xmlns="http://www.w3.org/2000/svg" width="39" height="39" viewBox="0 0 39 39">
  <g id="组_76" data-name="组 76" transform="translate(-168 -111)">
    <rect id="矩形_150" data-name="矩形 150" width="39" height="39" rx="5" transform="translate(168 111)" fill="#f57716" opacity="0.26"/>
    <circle id="Oval" cx="19.5" cy="19.5" r="19.5" transform="translate(168 111)" fill="#f57716" opacity="0.58"/>
    <circle id="Oval-Copy" cx="15.114" cy="15.114" r="15.114" transform="translate(172.386 115.386)" fill="#f57716"/>
    <g id="组_70" data-name="组 70" transform="translate(144.867 72.504)">
      <path id="路径_35" data-name="路径 35" d="M42.633,66.5a8.5,8.5,0,1,1,8.5-8.5A8.525,8.525,0,0,1,42.633,66.5Zm0-16.089A7.589,7.589,0,1,0,50.222,58,7.592,7.592,0,0,0,42.633,50.407Z" transform="translate(0 0)" fill="#fff"/>
      <path id="路径_36" data-name="路径 36" d="M289.932,396.2a.438.438,0,0,1-.395-.243,2.729,2.729,0,0,0-2.4-1.366,2.683,2.683,0,0,0-2.4,1.366.455.455,0,0,1-.82-.395,3.614,3.614,0,0,1,3.218-1.852,3.675,3.675,0,0,1,3.218,1.852.439.439,0,0,1-.213.607C290.054,396.17,289.993,396.2,289.932,396.2Zm-.82-5.646a.407.407,0,0,1-.395-.243.439.439,0,0,1,.212-.607l1.609-.789a.455.455,0,1,1,.395.82l-1.609.789A.45.45,0,0,1,289.113,390.554Zm-4.007,0a.564.564,0,0,1-.213-.061l-1.609-.789a.5.5,0,0,1-.213-.607.484.484,0,0,1,.607-.213l1.609.789a.5.5,0,0,1,.212.607A.418.418,0,0,1,285.105,390.554Z" transform="translate(-244.476 -333.317)" fill="#fff"/>
    </g>
  </g>
</svg>
