<svg xmlns="http://www.w3.org/2000/svg" width="24.347" height="32.462" viewBox="0 0 24.347 32.462">
  <path id="路径_75" data-name="路径 75" d="M177.522,34.781H154.979a.9.9,0,0,0-.9.9V54.606h1.8V36.585h20.739v.529l-17.363,3.07V63.976l17.414,2.654a.9.9,0,0,0,1.752-.289V35.683a.9.9,0,0,0-.9-.9Zm-15.714,18.88c-.425,0-.779-.525-.871-1.228l.014-.789c.108-.66.448-1.146.856-1.146.494,0,.895.708.895,1.582S162.3,53.661,161.809,53.661Zm-5.927,12.68a.9.9,0,1,1-1.8,0V54.606h1.8l0,11.735Z" transform="translate(-154.078 -34.781)" fill="#6478d3"/>
</svg>
