<svg xmlns="http://www.w3.org/2000/svg" width="39" height="39" viewBox="0 0 39 39">
  <g id="组_158" data-name="组 158" transform="translate(-260 -439)">
    <g id="组_84" data-name="组 84" transform="translate(92 328)">
      <rect id="矩形_150" data-name="矩形 150" width="39" height="39" rx="5" transform="translate(168 111)" fill="#868686" opacity="0.26"/>
      <circle id="Oval" cx="19.5" cy="19.5" r="19.5" transform="translate(168 111)" fill="#868686" opacity="0.58"/>
      <circle id="Oval-Copy" cx="15.114" cy="15.114" r="15.114" transform="translate(172.386 115.386)" fill="#868686"/>
    </g>
    <g id="组_99" data-name="组 99" transform="translate(1.884 43.973)">
      <g id="组_98" data-name="组 98" transform="translate(269.589 406)">
        <path id="路径_37" data-name="路径 37" d="M42.66,51.187a8.527,8.527,0,1,1,8.527-8.527,8.552,8.552,0,0,1-8.527,8.527Zm0-16.14a7.613,7.613,0,1,0,7.613,7.613,7.616,7.616,0,0,0-7.613-7.613Z" transform="translate(-34.133 -34.133)" fill="#fff"/>
        <path id="路径_38" data-name="路径 38" d="M286.806,303.053a1.336,1.336,0,0,1-.944-.4,1.357,1.357,0,0,1,1-2.284,1.336,1.336,0,0,1,.944.4,1.357,1.357,0,0,1-1,2.284Zm.091-1.736a.468.468,0,0,0-.457.457.372.372,0,0,0,.091.274.454.454,0,0,0,.274.122.468.468,0,0,0,.457-.457.372.372,0,0,0-.091-.274A.331.331,0,0,0,286.9,301.317Zm-5.695,1.736a1.336,1.336,0,0,1-.944-.4,1.357,1.357,0,0,1,1-2.284,1.336,1.336,0,0,1,.944.4,1.357,1.357,0,0,1-1,2.284Zm.091-1.736a.468.468,0,0,0-.457.457.372.372,0,0,0,.091.274.453.453,0,0,0,.274.122.468.468,0,0,0,.457-.457.372.372,0,0,0-.091-.274A.331.331,0,0,0,281.294,301.317Z" transform="translate(-275.508 -295.623)" fill="#fff"/>
        <path id="路径_39" data-name="路径 39" d="M288.985,646.414a.639.639,0,0,1-.335-.122l-.883-.914-.883.883a.441.441,0,0,1-.639,0l-.883-.883-.883.883a.458.458,0,0,1-.335.122.639.639,0,0,1-.335-.122l-1.218-1.218a.452.452,0,1,1,.639-.64l.883.883L285,644.4a.458.458,0,0,1,.335-.122.639.639,0,0,1,.335.122l.883.883.883-.883a.441.441,0,0,1,.64,0l.883.883.883-.883a.452.452,0,1,1,.639.64l-1.218,1.218A.285.285,0,0,1,288.985,646.414Z" transform="translate(-278.022 -633.38)" fill="#fff"/>
      </g>
    </g>
  </g>
</svg>
