<svg xmlns="http://www.w3.org/2000/svg" xmlns:xlink="http://www.w3.org/1999/xlink" width="89.787" height="89.337" viewBox="0 0 89.787 89.337">
  <defs>
    <linearGradient id="linear-gradient" x1="0.005" y1="0.505" x2="0.999" y2="0.505" gradientUnits="objectBoundingBox">
      <stop offset="0" stop-color="#ff66a9"/>
      <stop offset="1" stop-color="#f53689"/>
    </linearGradient>
    <linearGradient id="linear-gradient-2" x1="0.498" y1="0.969" x2="0.498" y2="0.445" gradientUnits="objectBoundingBox">
      <stop offset="0" stop-color="#fff"/>
      <stop offset="0.991" stop-color="#d6deea"/>
    </linearGradient>
  </defs>
  <g id="组_156" data-name="组 156" transform="translate(-66.357 -197.356)">
    <g id="组_63" data-name="组 63" transform="translate(-37.446 -120.72)">
      <path id="Path" d="M86.5,43.027a43.126,43.126,0,0,1-13.8,31.6,40.722,40.722,0,0,1-7.693,5.578,43.436,43.436,0,0,1-43.515,0,17.989,17.989,0,0,1-2.921-1.859A42.972,42.972,0,0,1,42.985,0,42.942,42.942,0,0,1,86.5,43.027Z" transform="translate(105.446 319.72)" fill="#dce2f0"/>
      <path id="Shape" d="M2.918,64.535C1.855,64,1.059,63.206,0,62.676v-.8A18.207,18.207,0,0,1,6.633,50.193,3.267,3.267,0,0,1,8.755,49.13a12.156,12.156,0,0,1-6.633-3.717c-3.714-4.516-.8-11.687,7.7-14.342l1.855-.533a.26.26,0,0,1,.266-.263c-1.858-1.329-3.45-1.063-4.51-3.72a3.71,3.71,0,0,1,.263-3.45c0-.267.267-.267.267-.533.266-.265,0-.265,0-.8v-.53a19.74,19.74,0,0,1,.8-8.766,17.127,17.127,0,0,1,4.777-7.435L13.8,4.78c.266-.533.8-.8,1.062-1.063A15.451,15.451,0,0,1,21.492.53,20.349,20.349,0,0,1,25.472,0,17.9,17.9,0,0,1,41.393,9.56,18.568,18.568,0,0,1,43.249,15.4v3.72c0,1.062.8,2.125.8,3.187a4.76,4.76,0,0,1-3.714,5.31,16.89,16.89,0,0,1-2.918,6.641A50.056,50.056,0,0,1,32.1,39.568v6.108s.267.533,3.185.8h2.651a16,16,0,0,1,6.1,1.592A18.745,18.745,0,0,1,52.27,56.83c.266.267.266.8.53,2.126a51.559,51.559,0,0,1-7.693,5.578Z" transform="translate(125.348 336.189)" fill="#fff"/>
      <path id="Path-2" data-name="Path" d="M54.129,13.543a40.722,40.722,0,0,1-7.693,5.578,43,43,0,0,1-21.757,5.842A42.99,42.99,0,0,1,2.921,19.121,17.989,17.989,0,0,1,0,17.263v-.8A18.221,18.221,0,0,1,6.636,4.78,5.349,5.349,0,0,1,8.758,3.717,9.629,9.629,0,0,1,2.125,0H12.206A15.461,15.461,0,0,0,24.942,6.372a16.028,16.028,0,0,0,11.41-4.78h2.655a12.306,12.306,0,0,1,6.1,1.595,18.825,18.825,0,0,1,8.228,8.763C53.865,12.48,53.865,13.013,54.129,13.543Z" transform="translate(124.019 380.806)" fill="url(#linear-gradient)"/>
      <path id="Path-3" data-name="Path" d="M16.717,0V5.576L0,6.108l.8-3.72c.266,0,.266.266.53.266.53.266,1.062.8,1.592,1.062a3.657,3.657,0,0,0,1.062.8.259.259,0,0,1,.264.266V1.062L3.981.8C6.9,2.388,10.877,3.451,16.717,0Z" transform="translate(141.002 375.76)" fill="url(#linear-gradient-2)"/>
      <path id="Path-4" data-name="Path" d="M35.968,17.263A27.1,27.1,0,0,1,25.62,18.589,26.648,26.648,0,0,1,10.5,12.217C9.169,16.2,5.719,19.121,1.74,20.98a3.77,3.77,0,0,1-1.592.53v-.264a19.762,19.762,0,0,1,.8-8.766A17.121,17.121,0,0,1,5.719,5.046l.266-.266c.266-.266.8-.533,1.062-1.062A15.444,15.444,0,0,1,13.68.53,20.39,20.39,0,0,1,17.661,0,17.605,17.605,0,0,1,33.579,9.559,20.914,20.914,0,0,1,35.438,15.4,3.817,3.817,0,0,1,35.968,17.263Z" transform="translate(132.629 335.393)" fill="#1c3754"/>
      <path id="Path-5" data-name="Path" d="M22.308,26.028c-1.592,1.859-4.247,1.859-6.636,1.859,2.388-2.391,1.062-10.092-7.429-9.3C-3.431,16.466-2.371,4.25,9.305.533L11.161,0l.266.266a19.321,19.321,0,0,0,3.448,6.108c-4.774,3.983,1.859,5.046,5.043,8.233C22.571,16.2,24.96,22.841,22.308,26.028Z" transform="translate(125.064 365.932)" fill="#1c3754"/>
      <path id="Path-6" data-name="Path" d="M86.5,43.027a43.126,43.126,0,0,1-13.8,31.6,40.722,40.722,0,0,1-7.693,5.578,43.436,43.436,0,0,1-43.515,0,17.989,17.989,0,0,1-2.921-1.859A42.972,42.972,0,0,1,42.985,0,42.942,42.942,0,0,1,86.5,43.027Z" transform="translate(105.446 319.72)" fill="none" stroke="#fff" stroke-linecap="round" stroke-linejoin="round" stroke-miterlimit="10" stroke-width="3.287"/>
    </g>
  </g>
</svg>
