<svg xmlns="http://www.w3.org/2000/svg" width="18.968" height="18.968" viewBox="0 0 18.968 18.968">
  <g id="组_105" data-name="组 105" transform="translate(-63.795 -58.88)">
    <path id="路径_43" data-name="路径 43" d="M73.279,68.364m-9.484,0a9.484,9.484,0,1,0,9.484-9.484A9.484,9.484,0,0,0,63.795,68.364Z" transform="translate(0)" fill="#6478d3"/>
    <path id="路径_44" data-name="路径 44" d="M206.858,220.705a5.089,5.089,0,0,0-2.871-3.488,3.469,3.469,0,1,0-4.212,0,5.089,5.089,0,0,0-2.871,3.488c-.107.455-.235,1.072.084,1.424a2,2,0,0,0,1.351.325h7.3c.073,0,.651-.016.722-.034C207.09,222.241,207.021,221.4,206.858,220.705Zm-2.936.643H199.9a.7.7,0,1,1,0-1.4h4.02a.7.7,0,1,1,0,1.4Z" transform="translate(-130.194 -148.913)" fill="#fff"/>
    <path id="路径_45" data-name="路径 45" d="M616.39,246.39a3.01,3.01,0,0,0-2.08-5.187.677.677,0,1,0,0,1.355,1.656,1.656,0,0,1,.173,3.3c-.058,0-.115,0-.173,0a.678.678,0,0,0-.678.678v.013a.678.678,0,0,0,.678.678c.065,0,.129,0,.193-.006a2.985,2.985,0,0,1,2.789,2.974.678.678,0,0,0,1.355,0A4.34,4.34,0,0,0,616.39,246.39Z" transform="translate(-538.27 -178.487)" fill="#fff"/>
  </g>
</svg>
