<svg xmlns="http://www.w3.org/2000/svg" width="18.592" height="18.462" viewBox="0 0 18.592 18.462">
  <path id="路径_40" data-name="路径 40" d="M65.014,82.109l-1.258.264-2.26,3.407.426.423.426.424,3.432-2.246.267-1.249,2.823-2.8L67.839,79.3ZM77.323,69.283a.307.307,0,0,1,.432,0,.3.3,0,0,1,0,.43L72.8,74.631l.772.768,4.951-4.918a.307.307,0,0,1,.433,0,.3.3,0,0,1,0,.43l-4.952,4.917.693.688c.012-.011.024-.018.036-.03l.524-.52h0l4.2-4.168a2.115,2.115,0,0,0,0-3.009,2.154,2.154,0,0,0-3.032,0l-4.172,4.14-.55.547c-.011.012-.019.025-.029.036l.692.689Zm-7.131,3.986a4.356,4.356,0,0,0,.054-1.175A4.277,4.277,0,0,0,69,69.438a4.364,4.364,0,0,0-4.743-.928L66.8,71.036a.974.974,0,0,1,0,1.382l-1.063,1.054a.985.985,0,0,1-1.387,0L61.857,71a4.279,4.279,0,0,0,1,4.532,4.332,4.332,0,0,0,2.394,1.205,4.414,4.414,0,0,0,1.253.013c2.649,2.633,9.192,9.129,9.192,9.129a2.561,2.561,0,0,0,3.6,0,2.511,2.511,0,0,0,0-3.571Zm8.32,11.83a1.334,1.334,0,0,1-1.876,0,1.312,1.312,0,0,1,0-1.86,1.334,1.334,0,0,1,1.873,0A1.306,1.306,0,0,1,78.512,85.1Z" transform="translate(-61.495 -68.165)" fill="#6478d3"/>
</svg>
