<svg xmlns="http://www.w3.org/2000/svg" width="24.492" height="26.5" viewBox="0 0 24.492 26.5">
  <path id="路径_68" data-name="路径 68" d="M116.988,76.994a6.8,6.8,0,1,0,6.8,6.8A6.8,6.8,0,0,0,116.988,76.994ZM121.44,83.8a.886.886,0,0,1-.887.887H117a.886.886,0,0,1-.887-.887V80.25a.887.887,0,0,1,1.775,0v2.662h2.662A.888.888,0,0,1,121.44,83.8Zm-13.03,0a8.58,8.58,0,0,1,13.37-7.117V65.875a1.776,1.776,0,0,0-1.775-1.775H101.075A1.776,1.776,0,0,0,99.3,65.875V88.811a1.776,1.776,0,0,0,1.775,1.775h10.666A8.572,8.572,0,0,1,108.41,83.8Zm-5.948-15.085a.886.886,0,0,1,.887-.887h14.384a.887.887,0,1,1,0,1.775H103.349A.888.888,0,0,1,102.462,68.711Zm0,5.079a.886.886,0,0,1,.887-.887h6.519a.887.887,0,0,1,0,1.775h-6.519A.886.886,0,0,1,102.462,73.79Z" transform="translate(-99.3 -64.1)" fill="#6478d3"/>
</svg>
