<svg xmlns="http://www.w3.org/2000/svg" width="18.231" height="18.231" viewBox="0 0 18.231 18.231">
  <path id="路径_41" data-name="路径 41" d="M9.7.585A9.115,9.115,0,1,1,.585,9.7,9.115,9.115,0,0,1,9.7.585ZM5.138,9.179v4.433a.652.652,0,0,0,.652.652h8.018a.652.652,0,0,0,.652-.652V9.179l-.687-2.748a.847.847,0,0,0-.822-.642h-6.3a.847.847,0,0,0-.822.642Zm3.074,2.353h3.178a.317.317,0,1,1,0,.635H8.212a.318.318,0,0,1,0-.636Zm5.162-3.2H6.223l.424-1.695h6.3l.424,1.695Z" transform="translate(-0.585 -0.585)" fill="#6478d3"/>
</svg>
